<?xml version="1.0" encoding="UTF-8"?>
<svg version="1.1" xmlns="http://www.w3.org/2000/svg" width="559" height="446">
<path d="M0 0 C1.06911621 0.01933594 2.13823242 0.03867188 3.23974609 0.05859375 C29.78855176 0.59741446 53.09865581 4.09206733 73 23 C74.41106302 24.21487244 75.8273529 25.42371355 77.25 26.625 C84.37976898 32.89748213 90.13688562 40.2493671 94 49 C94.05859375 51.12109375 94.05859375 51.12109375 93 53 C90.4453125 54.9296875 90.4453125 54.9296875 87.125 56.875 C86.53638184 57.22377197 85.94776367 57.57254395 85.34130859 57.93188477 C80.92959369 60.52571607 76.43710162 62.96719957 71.92578125 65.3828125 C68.50105506 67.27578532 65.15863006 69.28492255 61.8125 71.3125 C59.21039429 72.87844889 56.60534184 74.43944311 54 76 C52.95875977 76.62720947 52.95875977 76.62720947 51.89648438 77.26708984 C49.79354337 78.52625227 47.67976837 79.76511363 45.5625 81 C44.92481689 81.38583252 44.28713379 81.77166504 43.63012695 82.16918945 C39.04739965 84.80910276 35.27860913 85.62587931 30 86 C30 86.99 30 87.98 30 89 C31.051875 88.835 32.10375 88.67 33.1875 88.5 C38.93846438 88.47971441 43.01444313 91.81009131 47.64453125 94.85546875 C50.6832627 96.79756836 53.6834395 98.39518828 56.9375 99.9375 C62.04655007 102.41502101 66.75945486 105.32527811 71.47900391 108.46142578 C74.72258397 110.59722332 77.99581222 112.5844444 81.41015625 114.4375 C82.14331055 114.83541748 82.87646484 115.23333496 83.63183594 115.64331055 C85.0599149 116.40899238 86.49403385 117.16353854 87.93457031 117.90551758 C92.79829477 120.51489242 92.79829477 120.51489242 93.7956543 122.91357422 C94.15206503 126.55262571 91.86698001 129.33603816 90 132.3125 C89.58717773 132.98458496 89.17435547 133.65666992 88.74902344 134.34912109 C85.68069428 139.21698384 82.35332886 143.22268412 78 147 C76.8553125 148.2065625 76.8553125 148.2065625 75.6875 149.4375 C53.14051287 170.93579006 28.54519695 174.16469423 -1.3125 174.1875 C-2.08127472 174.18858765 -2.85004944 174.18967529 -3.64212036 174.1907959 C-28.46614727 174.1868257 -49.78119481 171.70483938 -70 156 C-70.69738281 155.52949219 -71.39476562 155.05898437 -72.11328125 154.57421875 C-88.5020061 143.44039566 -98.56365149 123.57167925 -102.48095703 104.58032227 C-106.44122903 83.04419628 -103.6401863 58.87391012 -91.375 40.3125 C-77.23328571 19.89057415 -58.38921851 6.70562807 -33.875 1.3125 C-22.66554266 -0.62759839 -11.33171857 -0.23889532 0 0 Z " fill="#1F1F1F" transform="translate(284,87)"/>
<path d="M0 0 C0.94552734 -0.01611328 1.89105469 -0.03222656 2.86523438 -0.04882812 C8.6934235 -0.05288958 12.61354252 0.69650614 17.8125 3.3125 C19.14054381 3.68601232 20.47346725 4.04303146 21.8125 4.375 C32.94187803 7.99585929 46.36879759 17.64694639 52.8125 27.3125 C52.8125 28.3025 52.8125 29.2925 52.8125 30.3125 C50.91795176 31.27337136 49.02180419 32.23108969 47.125 33.1875 C46.06925781 33.72117188 45.01351562 34.25484375 43.92578125 34.8046875 C40.8125 36.3125 40.8125 36.3125 37.98046875 37.3203125 C37.26503906 37.64773437 36.54960937 37.97515625 35.8125 38.3125 C35.4825 39.3025 35.1525 40.2925 34.8125 41.3125 C31.25 42.5 31.25 42.5 27.8125 43.3125 C27.8125 43.9725 27.8125 44.6325 27.8125 45.3125 C25.61328125 46.015625 25.61328125 46.015625 22.8125 46.3125 C20.41796875 44.984375 20.41796875 44.984375 18 43.0625 C7.69828115 35.51694277 -2.45931094 35.02738412 -14.9375 36.67578125 C-22.7950961 38.73840023 -28.4684262 45.17510716 -33.625 51.125 C-39.09910611 62.29217647 -39.30401073 72.54444021 -35.43359375 84.12890625 C-31.33166038 94.60876738 -24.77288677 99.56368902 -14.82421875 104.48046875 C-6.19966737 107.20199385 4.34546388 105.96896724 12.546875 102.53125 C15.71504949 100.82699062 18.118009 98.68621826 20.8125 96.3125 C23.74661223 95.33215068 25.2091188 95.06915553 28.10498047 96.23706055 C28.87213379 96.71957275 29.63928711 97.20208496 30.4296875 97.69921875 C31.28433594 98.22580078 32.13898438 98.75238281 33.01953125 99.29492188 C33.89996094 99.85759766 34.78039062 100.42027344 35.6875 101 C37.43458697 102.08773583 39.18197726 103.17498464 40.9296875 104.26171875 C41.75823242 104.7829834 42.58677734 105.30424805 43.44042969 105.84130859 C46.51951406 107.75100008 49.65141899 109.5424669 52.8125 111.3125 C51.95899739 117.51461899 46.2950882 121.446195 41.8125 125.3125 C25.55156323 136.88162517 7.01696553 144.08989857 -13.21337891 141.00341797 C-22.58297045 139.2612213 -30.93074792 136.12390165 -39.1875 131.3125 C-39.97511719 130.86132812 -40.76273437 130.41015625 -41.57421875 129.9453125 C-58.29864027 119.61294737 -67.53894487 103.88596803 -72.1875 85.3125 C-72.38730469 84.51585937 -72.58710938 83.71921875 -72.79296875 82.8984375 C-75.60795806 64.44771546 -71.79845034 45.11803399 -61.0625 29.765625 C-45.86312233 9.87977255 -25.10931975 -0.08664362 0 0 Z " fill="#FCFCFC" transform="translate(302.1875,103.6875)"/>
<path d="M0 0 C1.46856445 -0.01160156 1.46856445 -0.01160156 2.96679688 -0.0234375 C4.37348633 -0.01957031 4.37348633 -0.01957031 5.80859375 -0.015625 C6.65091553 -0.01336914 7.4932373 -0.01111328 8.36108398 -0.00878906 C10.5625 0.25 10.5625 0.25 13.5625 2.25 C11.891875 2.14558594 11.891875 2.14558594 10.1875 2.0390625 C-1.35656418 1.54368015 -10.00527119 3.36682907 -20.4375 8.25 C-21.31019531 8.64445312 -22.18289063 9.03890625 -23.08203125 9.4453125 C-33.00504473 14.41550839 -43.75389921 24.0496579 -48.4375 34.25 C-49.0975 34.25 -49.7575 34.25 -50.4375 34.25 C-50.61925781 34.8790625 -50.80101562 35.508125 -50.98828125 36.15625 C-52.19589391 40.26832592 -53.4215452 44.32609629 -55 48.3125 C-57.79088274 55.60911005 -58.804428 62.77769458 -58.75 70.5625 C-58.74581055 71.38991699 -58.74162109 72.21733398 -58.73730469 73.06982422 C-58.41162557 90.84012429 -50.16872579 108.02905782 -38.01171875 120.8671875 C-26.70418223 131.3339512 -13.60782835 137.98154591 1.8125 138.8125 C2.93011719 138.87727539 2.93011719 138.87727539 4.0703125 138.94335938 C5.900849 139.04896725 7.73165176 139.14994201 9.5625 139.25 C9.5625 139.58 9.5625 139.91 9.5625 140.25 C-7.93545569 143.52089445 -24.17507925 140.14376788 -39.4375 131.25 C-40.22511719 130.79882812 -41.01273437 130.34765625 -41.82421875 129.8828125 C-58.54864027 119.55044737 -67.78894487 103.82346803 -72.4375 85.25 C-72.63730469 84.45335937 -72.83710938 83.65671875 -73.04296875 82.8359375 C-75.85795806 64.38521546 -72.04845034 45.05553399 -61.3125 29.703125 C-46.04006265 9.72168613 -25.21667212 -0.20487479 0 0 Z " fill="#B1B1B1" transform="translate(302.4375,103.75)"/>
<path d="M0 0 C5.4198224 2.56728429 8.69582305 6.32954244 11.3125 11.6875 C12.54947383 17.64746484 12.03931507 22.92136986 9.3125 28.375 C5.25940778 32.97580739 1.82083014 35.13518499 -4.25 36 C-10.16413944 36.32273612 -14.99557351 35.21846016 -20 32 C-23.93691225 28.06308775 -24.76171436 22.8836452 -25.09765625 17.4921875 C-24.88264114 12.00500197 -23.08000152 8.27384794 -19.5625 4.125 C-13.51403221 -0.89080256 -7.66267464 -0.77294726 0 0 Z M-15 14 C-15.58204242 19.58113377 -15.58204242 19.58113377 -13.3125 24.4375 C-10.70467359 26.19954487 -9.14257113 26.84670385 -6 27 C-3.06528021 26.24925773 -1.51767185 25.69022913 0.3125 23.25 C1.2354251 20.22951784 1.44954801 18.14683604 1 15 C-1.2926905 11.98674963 -2.73013106 10.25397379 -6.5 9.5 C-9.84185163 10.16837033 -12.57200136 11.57200136 -15 14 Z " fill="#252424" transform="translate(300,284)"/>
<path d="M0 0 C0.75152344 -0.02900391 1.50304687 -0.05800781 2.27734375 -0.08789062 C7.57423779 -0.14797756 10.55140278 0.79845667 14.75 4.3125 C16.46160615 7.73571229 15.70545825 11.60277929 15.58984375 15.3671875 C15.75236608 18.35601282 16.38229763 19.72846152 17.75 22.3125 C17.98938724 26.39804216 17.37695289 29.49746125 14.875 32.75 C11.61576121 35.14649911 9.00633724 35.43515183 5.08203125 35.41015625 C4.27741455 35.40765869 3.47279785 35.40516113 2.64379883 35.40258789 C1.11855591 35.38893188 1.11855591 35.38893188 -0.4375 35.375 C-5.2946875 35.3440625 -5.2946875 35.3440625 -10.25 35.3125 C-10.25 24.0925 -10.25 12.8725 -10.25 1.3125 C-7.02434056 -0.30032972 -3.54059192 0.04462931 0 0 Z M-0.25 10.3125 C-0.25 11.3025 -0.25 12.2925 -0.25 13.3125 C1.73 13.3125 3.71 13.3125 5.75 13.3125 C5.75 12.3225 5.75 11.3325 5.75 10.3125 C3.77 10.3125 1.79 10.3125 -0.25 10.3125 Z M-0.25 22.3125 C-0.25 23.9625 -0.25 25.6125 -0.25 27.3125 C2.06 27.3125 4.37 27.3125 6.75 27.3125 C7.34070014 25.36646726 7.34070014 25.36646726 7.75 23.3125 C6.56575674 21.89672523 6.56575674 21.89672523 3.1875 22.25 C1.4859375 22.2809375 1.4859375 22.2809375 -0.25 22.3125 Z " fill="#2F2E2F" transform="translate(253.25,283.6875)"/>
<path d="M0 0 C0.75603516 -0.020625 1.51207031 -0.04125 2.29101562 -0.0625 C7.21748725 -0.09668194 10.52862397 0.55690074 14.8125 3.25 C17.44677495 6.60271357 17.03338024 10.12690212 16.8125 14.25 C16.503125 15.3946875 16.503125 15.3946875 16.1875 16.5625 C16.06375 17.119375 15.94 17.67625 15.8125 18.25 C16.4725 18.91 17.1325 19.57 17.8125 20.25 C18.25390625 22.203125 18.25390625 22.203125 18.375 24.5 C18.43816406 25.24765625 18.50132812 25.9953125 18.56640625 26.765625 C17.30809034 30.91219972 14.54440289 33.17620482 10.8125 35.25 C7.47375288 35.95278415 4.33210287 35.87176361 0.9375 35.6875 C0.07125 35.66880859 -0.795 35.65011719 -1.6875 35.63085938 C-7.98937525 35.44812475 -7.98937525 35.44812475 -9.1875 34.25 C-9.28832764 31.81339554 -9.32722603 29.40575299 -9.3203125 26.96875 C-9.32126923 26.24006714 -9.32222595 25.51138428 -9.32321167 24.76062012 C-9.32389335 23.2172029 -9.32203988 21.67378283 -9.31787109 20.13037109 C-9.31252262 17.760026 -9.31781642 15.38987041 -9.32421875 13.01953125 C-9.32355797 11.52343708 -9.3222768 10.02734303 -9.3203125 8.53125 C-9.32233673 7.81771362 -9.32436096 7.10417725 -9.32644653 6.36901855 C-9.2907278 -1.08010604 -6.66008004 0.04428981 0 0 Z M-0.1875 10.25 C-0.1875 11.24 -0.1875 12.23 -0.1875 13.25 C2.1225 13.25 4.4325 13.25 6.8125 13.25 C6.8125 12.26 6.8125 11.27 6.8125 10.25 C4.5025 10.25 2.1925 10.25 -0.1875 10.25 Z M-0.1875 22.25 C0.1425 23.9 0.4725 25.55 0.8125 27.25 C3.72884129 27.5002157 3.72884129 27.5002157 6.8125 27.25 C7.4725 26.26 8.1325 25.27 8.8125 24.25 C8.4825 23.59 8.1525 22.93 7.8125 22.25 C5.1725 22.25 2.5325 22.25 -0.1875 22.25 Z " fill="#252325" transform="translate(342.1875,283.75)"/>
<path d="M0 0 C1.07894531 0.00483398 1.07894531 0.00483398 2.1796875 0.00976562 C2.88351563 -0.00634766 3.58734375 -0.02246094 4.3125 -0.0390625 C9.8881176 -0.0442443 13.77088849 1.24668704 18.24609375 4.74023438 C20.57076603 7.8474696 20.66816174 11.54534927 20.4296875 15.32226562 C18.5546875 18.75976562 18.5546875 18.75976562 16.4296875 21.32226562 C16.0996875 21.98226563 15.7696875 22.64226562 15.4296875 23.32226562 C16.65301656 26.03353228 16.65301656 26.03353228 18.3671875 28.94726562 C18.93308594 29.95015625 19.49898437 30.95304687 20.08203125 31.98632812 C20.52675781 32.7571875 20.97148437 33.52804687 21.4296875 34.32226562 C20.4296875 35.32226562 20.4296875 35.32226562 18.14453125 35.41992188 C15.57291667 35.38736979 13.00130208 35.35481771 10.4296875 35.32226562 C8.7796875 32.35226562 7.1296875 29.38226563 5.4296875 26.32226562 C4.7696875 26.32226562 4.1096875 26.32226562 3.4296875 26.32226562 C3.0996875 29.29226563 2.7696875 32.26226562 2.4296875 35.32226562 C-0.5403125 35.32226562 -3.5103125 35.32226562 -6.5703125 35.32226562 C-8.2759165 30.20545363 -7.75623677 24.74418245 -7.75561523 19.38842773 C-7.75780817 17.26395832 -7.77599591 15.14000302 -7.79492188 13.015625 C-7.79785478 11.66862157 -7.79984026 10.32161567 -7.80078125 8.97460938 C-7.80489014 7.74734131 -7.80899902 6.52007324 -7.81323242 5.25561523 C-7.3716766 -0.07633771 -4.77219026 0.04915177 0 0 Z M3.4296875 10.32226562 C3.4296875 11.97226562 3.4296875 13.62226563 3.4296875 15.32226562 C6.47881978 16.33337655 6.47881978 16.33337655 9.4296875 15.32226562 C9.0996875 13.67226563 8.7696875 12.02226562 8.4296875 10.32226562 C6.7796875 10.32226562 5.1296875 10.32226562 3.4296875 10.32226562 Z " fill="#383539" transform="translate(180.5703125,283.677734375)"/>
<path d="M0 0 C3.63349555 2.05371487 5.17991137 3.27537387 6.59375 7.28125 C6.46875 10.09375 6.46875 10.09375 4.46875 12.09375 C2.15625 12.90625 2.15625 12.90625 -0.53125 13.09375 C-2.20544438 12.1064046 -3.87176852 11.10562895 -5.53125 10.09375 C-9.13659498 9.79943612 -12.06674846 10.16988292 -15.53125 11.09375 C-15.55833567 12.69782328 -15.57768483 14.3020285 -15.59375 15.90625 C-15.60535156 16.79957031 -15.61695313 17.69289063 -15.62890625 18.61328125 C-15.64134967 21.22788791 -15.64134967 21.22788791 -14.53125 24.09375 C-11.31145634 24.96029873 -11.31145634 24.96029873 -7.53125 25.09375 C-5.51870218 23.77943305 -3.51814731 22.44653115 -1.53125 21.09375 C2.22623654 21.23826871 3.79426748 21.41926748 6.46875 24.09375 C6.37776693 27.55110677 5.74253886 28.81996114 3.28125 31.28125 C-2.21123025 34.82084839 -6.59807854 35.51373326 -12.99609375 34.703125 C-18.0715811 33.48313112 -21.98130486 30.79368983 -25.46875 26.96875 C-28.01695239 22.47192226 -27.97548216 18.11441153 -27.53125 13.09375 C-25.78737992 7.04149501 -22.6456723 3.55760874 -17.53125 0.09375 C-11.95777282 -1.76407573 -5.56941193 -1.99398699 0 0 Z " fill="#312F31" transform="translate(160.53125,284.90625)"/>
<path d="M0 0 C1.97265625 0.55859375 1.97265625 0.55859375 3.45458984 2.70043945 C5.04930754 5.70290972 6.16123326 8.62272775 7.234375 11.84765625 C7.63076172 13.03617187 8.02714844 14.2246875 8.43554688 15.44921875 C8.83966797 16.6815625 9.24378906 17.91390625 9.66015625 19.18359375 C10.07587891 20.42367188 10.49160156 21.66375 10.91992188 22.94140625 C13.97265625 32.16477448 13.97265625 32.16477448 13.97265625 35.55859375 C10.34265625 35.55859375 6.71265625 35.55859375 2.97265625 35.55859375 C2.47765625 33.08359375 2.47765625 33.08359375 1.97265625 30.55859375 C-2.10149439 30.73033084 -2.10149439 30.73033084 -6.02734375 31.55859375 C-6.68734375 32.87859375 -7.34734375 34.19859375 -8.02734375 35.55859375 C-11.32734375 35.55859375 -14.62734375 35.55859375 -18.02734375 35.55859375 C-17.43236016 28.42922893 -14.94842358 21.96011052 -12.58984375 15.24609375 C-12.18185547 14.05435547 -11.77386719 12.86261719 -11.35351562 11.63476562 C-7.45382554 0.43190391 -7.45382554 0.43190391 0 0 Z M-2.02734375 16.55859375 C-2.35734375 18.20859375 -2.68734375 19.85859375 -3.02734375 21.55859375 C-2.36734375 21.55859375 -1.70734375 21.55859375 -1.02734375 21.55859375 C-1.02734375 19.90859375 -1.02734375 18.25859375 -1.02734375 16.55859375 C-1.35734375 16.55859375 -1.68734375 16.55859375 -2.02734375 16.55859375 Z " fill="#2A2829" transform="translate(224.02734375,283.44140625)"/>
<path d="M0 0 C3.59877644 2.83846564 4.82827953 5.57328621 6.140625 9.90234375 C6.48867188 11.03994141 6.83671875 12.17753906 7.1953125 13.34960938 C7.54335938 14.53361328 7.89140625 15.71761719 8.25 16.9375 C8.61351562 18.11763672 8.97703125 19.29777344 9.3515625 20.51367188 C12.23293946 30.08395964 12.23293946 30.08395964 12 35 C9.03 35 6.06 35 3 35 C2.34 33.68 1.68 32.36 1 31 C-3.02087289 30.72113165 -3.02087289 30.72113165 -7 31 C-7.495 31.66 -7.99 32.32 -8.5 33 C-8.995 33.66 -9.49 34.32 -10 35 C-12.74961306 35.37469677 -15.20864117 35.18303992 -18 35 C-19.22770288 31.31689135 -18.61851108 30.08922057 -17.41796875 26.44921875 C-17.06283203 25.35802734 -16.70769531 24.26683594 -16.34179688 23.14257812 C-15.96087891 22.00240234 -15.57996094 20.86222656 -15.1875 19.6875 C-14.81818359 18.55892578 -14.44886719 17.43035156 -14.06835938 16.26757812 C-13.05458564 13.17529522 -12.03015389 10.08685885 -11 7 C-10.67040283 5.90792236 -10.34080566 4.81584473 -10.0012207 3.69067383 C-8.19413615 -1.16567311 -4.70846617 -0.40590226 0 0 Z M-4 17 C-4.33 18.32 -4.66 19.64 -5 21 C-4.01 21 -3.02 21 -2 21 C-2.66 19.68 -3.32 18.36 -4 17 Z " fill="#242224" transform="translate(383,284)"/>
<path d="M0 0 C1.258125 -0.04125 2.51625 -0.0825 3.8125 -0.125 C4.52019531 -0.14820313 5.22789062 -0.17140625 5.95703125 -0.1953125 C8 0 8 0 11 2 C12.16796875 4.1640625 12.16796875 4.1640625 13.1875 6.625 C13.53167969 7.44226563 13.87585938 8.25953125 14.23046875 9.1015625 C14.48441406 9.72804688 14.73835938 10.35453125 15 11 C16.94475085 8.2230132 16.94475085 8.2230132 18.0078125 5.95703125 C19.18053748 3.70589134 20.26552302 1.85991297 22 0 C25.49695354 -0.95310442 28.72204829 -0.63897585 32 1 C31.44906318 5.53463382 29.505015 8.80578223 27.0625 12.5625 C22.19704809 20.06232044 22.19704809 20.06232044 20.4375 28.6875 C20.09915014 33.90084986 20.09915014 33.90084986 19 35 C16.32941149 35.14115161 13.67567762 35.04247107 11 35 C11.00902344 34.35675781 11.01804687 33.71351563 11.02734375 33.05078125 C10.71420632 23.5068971 6.54571461 16.72308302 1.61328125 8.76171875 C-1.04211276 4.41059944 -1.04211276 4.41059944 -0.75 1.5625 C-0.5025 1.046875 -0.255 0.53125 0 0 Z " fill="#2C2A2D" transform="translate(395,284)"/>
<path d="M0 0 C5.48602324 2.64504692 9.63256087 6.94884131 13 12 C13 13.32 13 14.64 13 16 C13.66 16.33 14.32 16.66 15 17 C10.37252408 17.00533295 5.74756539 16.97173369 1.12060547 16.90234375 C-0.45254989 16.88419819 -2.02586449 16.87661269 -3.59912109 16.87988281 C-5.86420512 16.88274457 -8.12599757 16.84739441 -10.390625 16.8046875 C-11.09181458 16.81378143 -11.79300415 16.82287537 -12.51544189 16.83224487 C-14.51660156 16.77294922 -14.51660156 16.77294922 -18 16 C-20.49121094 13.16064453 -20.49121094 13.16064453 -22 10 C-21.75 6.625 -21.75 6.625 -21 4 C-20.01 4 -19.02 4 -18 4 C-18 3.34 -18 2.68 -18 2 C-12.12557485 -0.7348348 -6.36728592 -0.65037851 0 0 Z " fill="#020102" transform="translate(306,154)"/>
<path d="M0 0 C-0.61875 0.5259375 -0.61875 0.5259375 -1.25 1.0625 C-3.21525956 3.07861733 -3.21525956 3.07861733 -4.75 6.3125 C-7.22170182 10.79008291 -10.96442114 14.95281879 -15.90234375 16.65625 C-18.31944726 17.0523489 -20.61320482 17.13238852 -23.0625 17.125 C-24.34833984 17.12886719 -24.34833984 17.12886719 -25.66015625 17.1328125 C-28 17 -28 17 -31 16 C-31 15.34 -31 14.68 -31 14 C-31.598125 13.9175 -32.19625 13.835 -32.8125 13.75 C-35.5966296 12.79544128 -36.43311142 11.42867729 -38 9 C-37.34 8.34 -36.68 7.68 -36 7 C-36 6.01 -36 5.02 -36 4 C-32.98746525 0.97587 -30.56181283 0.59962166 -26.38671875 0.48828125 C-25.30326172 0.45283203 -24.21980469 0.41738281 -23.10351562 0.38085938 C-21.97623047 0.35830078 -20.84894531 0.33574219 -19.6875 0.3125 C-18.57181641 0.27833984 -17.45613281 0.24417969 -16.30664062 0.20898438 C-10.87024619 0.0510808 -5.43851106 -0.0392389 0 0 Z " fill="#010101" transform="translate(322,178)"/>
<path d="M0 0 C0.66 0 1.32 0 2 0 C2 0.99 2 1.98 2 3 C2.99 3 3.98 3 5 3 C5.37233816 7.65422701 5.46507989 11.05195253 3.375 15.3125 C-0.71018904 19.93521392 -4.13669548 22.12913433 -10.25 23 C-16.07024807 23.34189982 -21.0345797 22.08486 -26 19 C-28.43369562 16.32991893 -28.97465176 15.4393695 -29.1875 11.75 C-29.125625 10.8425 -29.06375 9.935 -29 9 C-28.360625 8.7525 -27.72125 8.505 -27.0625 8.25 C-24.82123176 7.20265017 -24.82123176 7.20265017 -24.375 5 C-24.189375 4.01 -24.189375 4.01 -24 3 C-23.34 2.34 -22.68 1.68 -22 1 C-22 3.64 -22 6.28 -22 9 C-15.9149361 12.38894965 -15.9149361 12.38894965 -9.25 12.25 C-6.89125622 11.07440364 -6.89125622 11.07440364 -5 9 C-4.59952556 6.67724823 -4.2602896 4.34260643 -4 2 C-3.01 2 -2.02 2 -1 2 C-0.67 1.34 -0.34 0.68 0 0 Z " fill="#262526" transform="translate(306,297)"/>
<path d="M0 0 C3.75376152 1.25125384 4.24073289 2.5652404 6 6 C6 6.66 6 7.32 6 8 C6.71655762 7.98952637 7.43311523 7.97905273 8.17138672 7.96826172 C11.40588905 7.92678701 14.64033553 7.90070108 17.875 7.875 C19.00292969 7.85824219 20.13085938 7.84148437 21.29296875 7.82421875 C22.36933594 7.81777344 23.44570313 7.81132812 24.5546875 7.8046875 C25.54968262 7.79421387 26.54467773 7.78374023 27.56982422 7.77294922 C30 8 30 8 32 10 C32 10.99 32 11.98 32 13 C34.64 13 37.28 13 40 13 C40 13.33 40 13.66 40 14 C38.99098633 13.99363525 37.98197266 13.98727051 36.94238281 13.98071289 C33.19210436 13.96626264 29.44335574 13.99763068 25.69335938 14.04272461 C24.07166757 14.05584981 22.44982601 14.05661162 20.828125 14.04467773 C18.49329462 14.02965585 16.16261517 14.05934655 13.828125 14.09765625 C12.74352997 14.07627342 12.74352997 14.07627342 11.63702393 14.05445862 C9.29521242 14.04837016 9.29521242 14.04837016 6 15 C4.10001103 17.23847674 3.1984605 19.26821504 2 22 C-1 21 -1 21 -2.16796875 18.78125 C-3.85458271 13.14336671 -4.01795351 7.16315122 -1.5 1.8125 C-1.005 1.214375 -0.51 0.61625 0 0 Z " fill="#FAFAFB" transform="translate(282,163)"/>
<path d="M0 0 C1.67004829 0.31595508 3.33637583 0.65179959 5 1 C6.32 1 7.64 1 9 1 C9.66 1.66 10.32 2.32 11 3 C11.99 2.67 12.98 2.34 14 2 C16.90804078 7.58343829 17.51755629 10.82860443 16 17 C13.74548302 19.93087207 12.51557135 20.82814288 9 22 C7.51876453 22.0806622 6.03417796 22.10761193 4.55078125 22.09765625 C3.70322266 22.09443359 2.85566406 22.09121094 1.98242188 22.08789062 C0.66081055 22.07532227 0.66081055 22.07532227 -0.6875 22.0625 C-1.58017578 22.05798828 -2.47285156 22.05347656 -3.39257812 22.04882812 C-5.59508073 22.03705004 -7.79754885 22.01911481 -10 22 C-10 18.37 -10 14.74 -10 11 C-9.67 11 -9.34 11 -9 11 C-9 13.97 -9 16.94 -9 20 C-3.06 20 2.88 20 9 20 C9 19.34 9 18.68 9 18 C7.68 17.67 6.36 17.34 5 17 C5 16.34 5 15.68 5 15 C3.68 14.67 2.36 14.34 1 14 C2.65 13.67 4.3 13.34 6 13 C6 12.01 6 11.02 6 10 C3.69 9.67 1.38 9.34 -1 9 C0.65 7.02 2.3 5.04 4 3 C3.34 2.67 2.68 2.34 2 2 C1.67 2.66 1.34 3.32 1 4 C1 3.34 1 2.68 1 2 C0.34 1.67 -0.32 1.34 -1 1 C-0.67 0.67 -0.34 0.34 0 0 Z " fill="#211F21" transform="translate(254,297)"/>
<path d="M0 0 C2.375 2.5 2.375 2.5 4 5 C6.62113708 5 8.50935112 4.68707555 11 4 C12.99174103 6.81186968 13.08443886 8.81717613 12.6875 12.125 C12 16 12 16 11 18 C8.0625 18.75 8.0625 18.75 5 19 C4.34 18.34 3.68 17.68 3 17 C3.99 16.34 4.98 15.68 6 15 C5.67 13.02 5.34 11.04 5 9 C2.69 8.67 0.38 8.34 -2 8 C-2 9.65 -2 11.3 -2 13 C-5 14 -8 15 -11 16 C-11 11.05 -11 6.1 -11 1 C-7.54647804 -0.72676098 -3.76675285 -0.63227637 0 0 Z " fill="#1A191B" transform="translate(185,285)"/>
<path d="M0 0 C0.97710937 -0.03738281 1.95421875 -0.07476562 2.9609375 -0.11328125 C5.625 0.3125 5.625 0.3125 7.46875 2.1640625 C8.84993804 4.73045919 8.78027763 6.43986383 8.625 9.3125 C8.955 9.6425 9.285 9.9725 9.625 10.3125 C9.91029991 13.0228491 10.06388735 14.67384324 8.4921875 16.9609375 C5.81113141 18.90161827 3.76928966 18.64127806 0.5 18.5625 C-0.57507813 18.54703125 -1.65015625 18.5315625 -2.7578125 18.515625 C-5.375 18.3125 -5.375 18.3125 -6.375 17.3125 C-6.47481214 14.6351862 -6.51379875 11.98945825 -6.5 9.3125 C-6.50386719 8.56226563 -6.50773438 7.81203125 -6.51171875 7.0390625 C-6.50014783 0.62877346 -6.35083893 0.15835425 0 0 Z M-1.375 4.3125 C-1.375 5.3025 -1.375 6.2925 -1.375 7.3125 C-0.055 7.3125 1.265 7.3125 2.625 7.3125 C2.625 6.3225 2.625 5.3325 2.625 4.3125 C1.305 4.3125 -0.015 4.3125 -1.375 4.3125 Z M-1.375 12.3125 C-1.375 12.9725 -1.375 13.6325 -1.375 14.3125 C0.275 14.3125 1.925 14.3125 3.625 14.3125 C3.295 13.3225 2.965 12.3325 2.625 11.3125 C1.25606761 11.25979537 1.25606761 11.25979537 -1.375 12.3125 Z " fill="#5C575C" transform="translate(193.375,333.6875)"/>
<path d="M0 0 C10.48080761 -0.36991086 10.48080761 -0.36991086 12.84765625 1.31640625 C14.55873889 3.81632699 14.12838403 6.04716728 14 9 C14.33 9.33 14.66 9.66 15 10 C15.1875 12.9375 15.1875 12.9375 15 16 C13 18 13 18 9.9609375 18.1953125 C6.640625 18.13020833 3.3203125 18.06510417 0 18 C0 12.06 0 6.12 0 0 Z M5 4 C5 4.99 5 5.98 5 7 C6.32 6.67 7.64 6.34 9 6 C8.67 5.34 8.34 4.68 8 4 C7.01 4 6.02 4 5 4 Z M5 11 C5 11.99 5 12.98 5 14 C6.65 13.67 8.3 13.34 10 13 C9.67 12.34 9.34 11.68 9 11 C7.68 11 6.36 11 5 11 Z " fill="#423F42" transform="translate(273,334)"/>
<path d="M0 0 C2.05859375 0.3359375 2.05859375 0.3359375 4.05859375 2.3359375 C3.68359375 4.4609375 3.68359375 4.4609375 3.05859375 6.3359375 C0.67295298 5.76009318 -1.60823409 5.11366155 -3.94140625 4.3359375 C-3.94140625 4.9959375 -3.94140625 5.6559375 -3.94140625 6.3359375 C-3.01328125 6.4596875 -2.08515625 6.5834375 -1.12890625 6.7109375 C2.05859375 7.3359375 2.05859375 7.3359375 5.05859375 9.3359375 C5.45050491 12.40590822 5.53131223 14.44959035 4.05859375 17.2109375 C0.85387147 19.01359378 -2.41263326 19.01045145 -5.94140625 18.3359375 C-8.44140625 16.3359375 -8.44140625 16.3359375 -9.94140625 14.3359375 C-9.28140625 13.3459375 -8.62140625 12.3559375 -7.94140625 11.3359375 C-5.63140625 11.9959375 -3.32140625 12.6559375 -0.94140625 13.3359375 C-3.82002593 11.34081221 -3.82002593 11.34081221 -6.56640625 9.9609375 C-8.94140625 8.3359375 -8.94140625 8.3359375 -9.94140625 6.3984375 C-9.94140625 4.3359375 -9.94140625 4.3359375 -9.06640625 2.0859375 C-6.09716321 -0.35932148 -3.74430003 -0.06148276 0 0 Z " fill="#656267" transform="translate(344.94140625,333.6640625)"/>
<path d="M0 0 C2 2 2 2 2 5 C-1 6 -1 6 -3 6 C-0.525 6.99 -0.525 6.99 2 8 C3.31690141 14.34507042 3.31690141 14.34507042 2.0625 16.9375 C-1.20938244 18.6230152 -4.45387701 18.66356024 -8 18 C-10.5 16.125 -10.5 16.125 -12 14 C-12 13.34 -12 12.68 -12 12 C-9.21176345 10.9673198 -8.1322726 10.95490707 -5.25 11.9375 C-4.5075 12.288125 -3.765 12.63875 -3 13 C-5.87861968 11.00487471 -5.87861968 11.00487471 -8.625 9.625 C-11 8 -11 8 -12.0625 6.0625 C-12 4 -12 4 -10.5625 1.75 C-6.82103909 -0.80514403 -4.48210078 -0.43375169 0 0 Z " fill="#535155" transform="translate(370,334)"/>
<path d="M0 0 C1.2065625 0.0309375 1.2065625 0.0309375 2.4375 0.0625 C3.25582722 1.95582534 4.06692268 3.85227733 4.875 5.75 C5.55369141 7.33361328 5.55369141 7.33361328 6.24609375 8.94921875 C7.29197455 11.68222529 7.97270748 14.18292337 8.4375 17.0625 C7.1175 17.3925 5.7975 17.7225 4.4375 18.0625 C3.7775 17.0725 3.1175 16.0825 2.4375 15.0625 C-0.64615871 14.8122843 -0.64615871 14.8122843 -3.5625 15.0625 C-3.8925 16.0525 -4.2225 17.0425 -4.5625 18.0625 C-5.8825 18.0625 -7.2025 18.0625 -8.5625 18.0625 C-9.91935993 13.99192022 -8.37118515 11.64160733 -6.6875 7.9375 C-6.26404297 6.96876953 -6.26404297 6.96876953 -5.83203125 5.98046875 C-3.22133774 0.07856921 -3.22133774 0.07856921 0 0 Z M-0.5625 7.0625 C0.4375 10.0625 0.4375 10.0625 0.4375 10.0625 Z " fill="#444144" transform="translate(219.5625,333.9375)"/>
<path d="M0 0 C5.43869121 0.08994528 8.6727988 0.50688604 12.75 4.375 C16.67079677 8.51361881 18.62563004 12.51449101 18.875 18.25 C18.83375 18.95125 18.7925 19.6525 18.75 20.375 C18.42 19.055 18.09 17.735 17.75 16.375 C16.43 16.705 15.11 17.035 13.75 17.375 C14.08 16.055 14.41 14.735 14.75 13.375 C14.09 13.375 13.43 13.375 12.75 13.375 C12.42 14.365 12.09 15.355 11.75 16.375 C11.09 16.375 10.43 16.375 9.75 16.375 C9.09 18.685 8.43 20.995 7.75 23.375 C6.75 21.375 6.75 21.375 6.9375 18.5 C6.70317783 14.59463054 5.51222001 13.96458126 2.75 11.375 C2.75 10.055 2.75 8.735 2.75 7.375 C1.76 7.045 0.77 6.715 -0.25 6.375 C1.07 6.045 2.39 5.715 3.75 5.375 C4.08 4.055 4.41 2.735 4.75 1.375 C-1.685 1.87 -1.685 1.87 -8.25 2.375 C-5.50637988 -0.36862012 -3.82800386 0.04369867 0 0 Z " fill="#414041" transform="translate(293.25,283.625)"/>
<path d="M0 0 C3.91006464 -0.12552064 7.81931728 -0.21521802 11.73095703 -0.2746582 C13.69996473 -0.31156222 15.66841495 -0.3751618 17.63671875 -0.43945312 C25.5015416 -0.53926052 31.28139897 0.33336377 38.32519531 3.91723633 C41.38899266 5.15746463 43.72497012 5.19079303 47 5 C46.67 5.66 46.34 6.32 46 7 C43.6859378 7.73075648 41.35171131 8.40138258 39 9 C39 9.66 39 10.32 39 11 C36.80078125 11.703125 36.80078125 11.703125 34 12 C31.60546875 10.671875 31.60546875 10.671875 29.1875 8.75 C19.73379773 1.80159804 11.44441901 1.40277688 0 1 C0 0.67 0 0.34 0 0 Z " fill="#ACACAC" transform="translate(291,138)"/>
<path d="M0 0 C5.5952381 0.5952381 5.5952381 0.5952381 8 3 C7.9375 5.375 7.9375 5.375 7 8 C1.76040768 12.83654676 -1.13711788 13.11069165 -8 13 C-8 12.34 -8 11.68 -8 11 C-9.45833358 9.37485532 -9.45833358 9.37485532 -11 8 C-8.00146037 4.65547502 -5.05376925 2.89175898 -1 1 C-0.67 0.67 -0.34 0.34 0 0 Z " fill="#252225" transform="translate(159,306)"/>
<path d="M0 0 C1.258125 -0.04125 2.51625 -0.0825 3.8125 -0.125 C4.52019531 -0.14820313 5.22789062 -0.17140625 5.95703125 -0.1953125 C8 0 8 0 11 2 C11.4765625 3.953125 11.4765625 3.953125 11.625 6.25 C11.68816406 7.04792969 11.75132812 7.84585937 11.81640625 8.66796875 C11.87699219 9.43753906 11.93757813 10.20710938 12 11 C12.31622777 13.00277585 12.64179815 15.00430399 13 17 C12.01 17 11.02 17 10 17 C9.34 16.34 8.68 15.68 8 15 C7.03513672 14.57847656 7.03513672 14.57847656 6.05078125 14.1484375 C3.45303581 12.69370005 2.61300043 11.217602 1.1875 8.625 C0.74792969 7.85414063 0.30835938 7.08328125 -0.14453125 6.2890625 C-1.11623296 3.68898395 -0.95272312 2.56007809 0 0 Z " fill="#222122" transform="translate(395,284)"/>
<path d="M0 0 C1.875 1.625 1.875 1.625 3 3 C-6.61232688 9.0077043 -14.81508914 9.2827646 -26 9 C-23.85153741 7.91829146 -21.69707165 6.85499638 -19.52734375 5.81640625 C-18.67269531 5.40261719 -17.81804687 4.98882812 -16.9375 4.5625 C-16.08027344 4.15128906 -15.22304688 3.74007812 -14.33984375 3.31640625 C-12.12113111 2.06814889 -10.76395945 0.79394176 -9 -1 C-5.17456525 -2.27514492 -3.66576992 -1.52740413 0 0 Z " fill="#ABABAB" transform="translate(332,201)"/>
<path d="M0 0 C2.375 -0.1875 2.375 -0.1875 5 0 C5.66 0.99 6.32 1.98 7 3 C7.66 2.01 8.32 1.02 9 0 C11.625 -0.1875 11.625 -0.1875 14 0 C13.5838117 2.9133181 13.08471884 4.86586184 11.5 7.375 C9.67162324 10.57465934 9.3567012 13.3616478 9 17 C7.68 17.33 6.36 17.66 5 18 C4.98582031 17.43152344 4.97164062 16.86304688 4.95703125 16.27734375 C4.57065671 10.02225318 2.99324026 6.81236646 -1 2 C-0.67 1.34 -0.34 0.68 0 0 Z " fill="#59555A" transform="translate(234,334)"/>
<path d="M0 0 C2.54232342 -0.08152344 5.08199202 -0.14073716 7.625 -0.1875 C8.33785156 -0.21263672 9.05070313 -0.23777344 9.78515625 -0.26367188 C15.43845123 -0.34146951 19.26935213 0.86833295 23.81640625 4.41796875 C26.13959907 7.52322647 26.24394763 11.22523148 26 15 C24.93996738 17.43708434 23.74070095 18.94280797 22 21 C20.6735112 17.46269654 21.27407124 14.53288372 21.80859375 10.90625 C22.02671114 8.73397884 21.76651811 7.04404829 21 5 C20.34 5 19.68 5 19 5 C18.67 5.66 18.34 6.32 18 7 C15.4375 7.625 15.4375 7.625 13 8 C11.79371992 5.66785852 10.8345262 3.50357861 10 1 C6.37 1.33 2.74 1.66 -1 2 C-0.67 1.34 -0.34 0.68 0 0 Z " fill="#4B4A4B" transform="translate(175,284)"/>
<path d="M0 0 C1.32 0.33 2.64 0.66 4 1 C4.8723412 3.99480917 5.10829766 6.63575911 5.0625 9.75 C5.05347656 10.54921875 5.04445313 11.3484375 5.03515625 12.171875 C5.01775391 13.07679688 5.01775391 13.07679688 5 14 C7.64 14 10.28 14 13 14 C13 15.32 13 16.64 13 18 C8.71 18 4.42 18 0 18 C0 12.06 0 6.12 0 0 Z " fill="#444146" transform="translate(298,334)"/>
<path d="M0 0 C3.05387928 1.52693964 3.65962073 4.03617325 5.125 7.0625 C5.66382813 8.16722656 6.20265625 9.27195312 6.7578125 10.41015625 C7.16773438 11.26480469 7.57765625 12.11945313 8 13 C7 14 7 14 4.71484375 14.09765625 C3.34005859 14.08025391 3.34005859 14.08025391 1.9375 14.0625 C1.01839844 14.05347656 0.09929687 14.04445313 -0.84765625 14.03515625 C-1.55792969 14.02355469 -2.26820313 14.01195312 -3 14 C-7 7.25 -7 7.25 -7 5 C-4.525 5.99 -4.525 5.99 -2 7 C-2 6.34 -2 5.68 -2 5 C-2.66 5 -3.32 5 -4 5 C-3 2 -3 2 0 0 Z " fill="#232023" transform="translate(194,305)"/>
<path d="M0 0 C1.65 0.33 3.3 0.66 5 1 C5 6.28 5 11.56 5 17 C3.35 17.33 1.7 17.66 0 18 C-1.52491129 14.95017742 -1.14361434 11.77877461 -1.125 8.4375 C-1.12886719 7.73947266 -1.13273437 7.04144531 -1.13671875 6.32226562 C-1.12663994 1.12663994 -1.12663994 1.12663994 0 0 Z " fill="#2D2B2D" transform="translate(321,334)"/>
<path d="M0 0 C0.99 0.33 1.98 0.66 3 1 C4.1875 3.5625 4.1875 3.5625 5 6 C4.01 6 3.02 6 2 6 C2.33 10.95 2.66 15.9 3 21 C1.68 21 0.36 21 -1 21 C-3.43290754 15.64954198 -3.60002882 10.80027864 -3 5 C-1.5 1.8125 -1.5 1.8125 0 0 Z " fill="#F5F5F5" transform="translate(282,163)"/>
<path d="M0 0 C0.495 0.99 0.495 0.99 1 2 C-7.71280358 4.24018222 -16.09401684 4.27441747 -25.02539062 4.20581055 C-27.52223734 4.18733546 -30.01871644 4.18530285 -32.515625 4.18554688 C-34.10416989 4.1806384 -35.69271227 4.17481304 -37.28125 4.16796875 C-38.02701294 4.16685593 -38.77277588 4.1657431 -39.5411377 4.16459656 C-44.76769409 4.11615295 -44.76769409 4.11615295 -47 3 C-46.67 2.34 -46.34 1.68 -46 1 C-44.74864258 1.00523682 -43.49728516 1.01047363 -42.20800781 1.01586914 C-37.56380936 1.03397391 -32.91961403 1.04545209 -28.27539062 1.05493164 C-26.26561966 1.05995931 -24.25585236 1.06678233 -22.24609375 1.07543945 C-19.35676165 1.08757351 -16.46747793 1.09324399 -13.578125 1.09765625 C-12.23104462 1.10539818 -12.23104462 1.10539818 -10.85675049 1.11329651 C-9.5958963 1.11340981 -9.5958963 1.11340981 -8.30957031 1.11352539 C-7.57232727 1.115746 -6.83508423 1.11796661 -6.07550049 1.12025452 C-3.93847043 0.99643498 -2.05476076 0.58521369 0 0 Z " fill="#626162" transform="translate(310,257)"/>
<path d="M0 0 C0.70125 0.01417969 1.4025 0.02835937 2.125 0.04296875 C3.176875 0.05263672 3.176875 0.05263672 4.25 0.0625 C6.125 0.23046875 6.125 0.23046875 8.125 1.23046875 C7.71182778 6.05081137 5.74480085 8.14039486 2.125 11.23046875 C1.465 11.23046875 0.805 11.23046875 0.125 11.23046875 C-0.535 10.24046875 -1.195 9.25046875 -1.875 8.23046875 C-3.195 8.23046875 -4.515 8.23046875 -5.875 8.23046875 C-3.50104686 0.43033701 -3.50104686 0.43033701 0 0 Z " fill="#323031" transform="translate(418.875,283.76953125)"/>
<path d="M0 0 C2.97 0 5.94 0 9 0 C9 0.66 9 1.32 9 2 C7.02 2 5.04 2 3 2 C3.33 3.98 3.66 5.96 4 8 C5.65 8 7.3 8 9 8 C9.33 7.34 9.66 6.68 10 6 C10 6.99 10 7.98 10 9 C7.29120665 10.35439668 4.99066732 10.06501451 2 10 C2 11.65 2 13.3 2 15 C4.31 15 6.62 15 9 15 C9 15.66 9 16.32 9 17 C6.03 17.33 3.06 17.66 0 18 C0 12.06 0 6.12 0 0 Z " fill="#454347" transform="translate(273,334)"/>
<path d="M0 0 C2.97 0.495 2.97 0.495 6 1 C6.35555556 6.33333333 6.35555556 6.33333333 5 8.875 C1.79527772 10.67765628 -1.47122701 10.67451395 -5 10 C-7.5 8 -7.5 8 -9 6 C-8.34 5.01 -7.68 4.02 -7 3 C-4.69 3.66 -2.38 4.32 0 5 C0 3.35 0 1.7 0 0 Z " fill="#59565B" transform="translate(344,342)"/>
<path d="M0 0 C0.66 0 1.32 0 2 0 C3.31690141 6.34507042 3.31690141 6.34507042 2.0625 8.9375 C-1.20938244 10.6230152 -4.45387701 10.66356024 -8 10 C-10.5 8.125 -10.5 8.125 -12 6 C-12 5.34 -12 4.68 -12 4 C-9.21176345 2.9673198 -8.1322726 2.95490707 -5.25 3.9375 C-4.5075 4.288125 -3.765 4.63875 -3 5 C-3 4.34 -3 3.68 -3 3 C-2.34 3 -1.68 3 -1 3 C-0.67 2.01 -0.34 1.02 0 0 Z " fill="#5E5960" transform="translate(370,342)"/>
<path d="M0 0 C0.66 0 1.32 0 2 0 C2 0.99 2 1.98 2 3 C2.99 3 3.98 3 5 3 C4.25 10.75 4.25 10.75 2 13 C1.67 12.01 1.34 11.02 1 10 C0.34 11.32 -0.32 12.64 -1 14 C-2.65 13.67 -4.3 13.34 -6 13 C-5.34 9.37 -4.68 5.74 -4 2 C-3.01 2 -2.02 2 -1 2 C-0.67 1.34 -0.34 0.68 0 0 Z " fill="#181718" transform="translate(306,297)"/>
<path d="M0 0 C0.66 0 1.32 0 2 0 C2.33 2.64 2.66 5.28 3 8 C3.66 8 4.32 8 5 8 C5 8.66 5 9.32 5 10 C4.34 10 3.68 10 3 10 C3 10.66 3 11.32 3 12 C2.34 12 1.68 12 1 12 C0.67 12.99 0.34 13.98 0 15 C-1.32 15 -2.64 15 -4 15 C-5.32830615 11.01508155 -4.23204404 9.59951452 -2.5625 5.8125 C-2.08941406 4.72582031 -1.61632812 3.63914062 -1.12890625 2.51953125 C-0.75636719 1.68808594 -0.38382813 0.85664063 0 0 Z " fill="#3B393B" transform="translate(215,337)"/>
<path d="M0 0 C1.51400391 0.01740234 1.51400391 0.01740234 3.05859375 0.03515625 C4.07050781 0.04417969 5.08242187 0.05320312 6.125 0.0625 C7.29869141 0.07990234 7.29869141 0.07990234 8.49609375 0.09765625 C8.16609375 1.08765625 7.83609375 2.07765625 7.49609375 3.09765625 C5.84609375 3.42765625 4.19609375 3.75765625 2.49609375 4.09765625 C2.16609375 5.08765625 1.83609375 6.07765625 1.49609375 7.09765625 C2.81609375 7.09765625 4.13609375 7.09765625 5.49609375 7.09765625 C5.82609375 6.10765625 6.15609375 5.11765625 6.49609375 4.09765625 C6.49609375 5.41765625 6.49609375 6.73765625 6.49609375 8.09765625 C3.52609375 8.09765625 0.55609375 8.09765625 -2.50390625 8.09765625 C-2.50390625 11.06765625 -2.50390625 14.03765625 -2.50390625 17.09765625 C-2.83390625 17.09765625 -3.16390625 17.09765625 -3.50390625 17.09765625 C-3.53075304 14.45175611 -3.55066982 11.80612529 -3.56640625 9.16015625 C-3.57478516 8.40541016 -3.58316406 7.65066406 -3.59179688 6.87304688 C-3.60043066 4.94771312 -3.55614958 3.02230044 -3.50390625 1.09765625 C-2.50390625 0.09765625 -2.50390625 0.09765625 0 0 Z " fill="#615F62" transform="translate(190.50390625,333.90234375)"/>
<path d="M0 0 C0.99708984 -0.01224609 1.99417969 -0.02449219 3.02148438 -0.03710938 C3.97732422 -0.03904297 4.93316406 -0.04097656 5.91796875 -0.04296875 C6.78574951 -0.04707764 7.65353027 -0.05118652 8.54760742 -0.05541992 C10.8125 0.1875 10.8125 0.1875 13.8125 2.1875 C12.10707031 2.10048828 12.10707031 2.10048828 10.3671875 2.01171875 C-0.30068739 1.64074288 -8.40810195 2.78519863 -18.1875 7.1875 C-18.8475 5.8675 -19.5075 4.5475 -20.1875 3.1875 C-19.1975 3.1875 -18.2075 3.1875 -17.1875 3.1875 C-17.1875 2.5275 -17.1875 1.8675 -17.1875 1.1875 C-11.46404818 -0.02715446 -5.8218868 0.00380764 0 0 Z " fill="#A2A2A2" transform="translate(302.1875,103.8125)"/>
<path d="M0 0 C3.95827235 -0.05785647 7.9164367 -0.09354717 11.875 -0.125 C13.00292969 -0.14175781 14.13085938 -0.15851563 15.29296875 -0.17578125 C16.36933594 -0.18222656 17.44570313 -0.18867188 18.5546875 -0.1953125 C19.54968262 -0.20578613 20.54467773 -0.21625977 21.56982422 -0.22705078 C24 0 24 0 26 2 C26 2.99 26 3.98 26 5 C28.64 5 31.28 5 34 5 C34 5.33 34 5.66 34 6 C23.11 6 12.22 6 1 6 C1 5.67 1 5.34 1 5 C8.26 5 15.52 5 23 5 C23 3.68 23 2.36 23 1 C15.41 1 7.82 1 0 1 C0 0.67 0 0.34 0 0 Z " fill="#C5C3C5" transform="translate(288,171)"/>
<path d="M0 0 C0.99 0.33 1.98 0.66 3 1 C2.67 2.32 2.34 3.64 2 5 C1.34 5 0.68 5 0 5 C-0.33 6.65 -0.66 8.3 -1 10 C-3.31 9.67 -5.62 9.34 -8 9 C-7.34 11.31 -6.68 13.62 -6 16 C-7.32 16 -8.64 16 -10 16 C-10 13.03 -10 10.06 -10 7 C-7.03 7 -4.06 7 -1 7 C-1 5.68 -1 4.36 -1 3 C-2.32 2.67 -3.64 2.34 -5 2 C-3.35 2 -1.7 2 0 2 C0 1.34 0 0.68 0 0 Z " fill="#322D31" transform="translate(198,335)"/>
<path d="M0 0 C0.639375 0.2475 1.27875 0.495 1.9375 0.75 C2.2675 1.74 2.5975 2.73 2.9375 3.75 C3.9275 3.42 4.9175 3.09 5.9375 2.75 C4.6883258 6.20925163 3.26222205 8.89693203 0.9375 11.75 C0.69 10.945625 0.4425 10.14125 0.1875 9.3125 C-0.78488859 6.578919 -0.78488859 6.578919 -3.1875 5.9375 C-3.80625 5.875625 -4.425 5.81375 -5.0625 5.75 C-4.6875 3.3125 -4.6875 3.3125 -4.0625 0.75 C-2.0625 -0.25 -2.0625 -0.25 0 0 Z " fill="#2D2C2D" transform="translate(416.0625,291.25)"/>
<path d="M0 0 C0.90105469 0.00902344 1.80210937 0.01804687 2.73046875 0.02734375 C3.41753906 0.03894531 4.10460937 0.05054688 4.8125 0.0625 C4.5 2 4.5 2 3.8125 4.0625 C2.8225 4.3925 1.8325 4.7225 0.8125 5.0625 C1.4725 5.3925 2.1325 5.7225 2.8125 6.0625 C2.4825 7.0525 2.1525 8.0425 1.8125 9.0625 C0.8225 8.7325 -0.1675 8.4025 -1.1875 8.0625 C-1.1875 7.0725 -1.1875 6.0825 -1.1875 5.0625 C-3.8275 4.7325 -6.4675 4.4025 -9.1875 4.0625 C-8.8575 3.0725 -8.5275 2.0825 -8.1875 1.0625 C-5.17259443 0.05753148 -3.14568308 -0.04085303 0 0 Z " fill="#1C1B1C" transform="translate(293.1875,284.9375)"/>
<path d="M0 0 C1.32 0.33 2.64 0.66 4 1 C5.04005702 4.38018531 5.08004482 7.4780279 5 11 C4.01 11.495 4.01 11.495 3 12 C2.67 12.99 2.34 13.98 2 15 C1.34 15 0.68 15 0 15 C0 10.05 0 5.1 0 0 Z " fill="#38363B" transform="translate(298,334)"/>
<path d="M0 0 C6.75 -0.125 6.75 -0.125 9 1 C9.33 1.99 9.66 2.98 10 4 C10.66 4 11.32 4 12 4 C12.33 2.68 12.66 1.36 13 0 C13.125 2.875 13.125 2.875 13 6 C11 8 11 8 7.375 8.125 C6.26125 8.08375 5.1475 8.0425 4 8 C4.99 7.67 5.98 7.34 7 7 C7 6.34 7 5.68 7 5 C4.69 5 2.38 5 0 5 C0 3.35 0 1.7 0 0 Z M3 1 C3 1.99 3 2.98 3 4 C4.65 3.67 6.3 3.34 8 3 C7.67 2.34 7.34 1.68 7 1 C5.68 1 4.36 1 3 1 Z " fill="#6D696D" transform="translate(275,344)"/>
<path d="M0 0 C1.051875 -0.02126953 1.051875 -0.02126953 2.125 -0.04296875 C4 0.1875 4 0.1875 6 2.1875 C6 3.1775 6 4.1675 6 5.1875 C2.70303895 6.28648702 1.59505097 6.05874444 -1.6875 5.25 C-2.49574219 5.05535156 -3.30398438 4.86070312 -4.13671875 4.66015625 C-4.75160156 4.50417969 -5.36648438 4.34820312 -6 4.1875 C-6 3.1975 -6 2.2075 -6 1.1875 C-3.77109005 0.07304502 -2.46944894 0.02269714 0 0 Z " fill="#2B2A2B" transform="translate(366,333.8125)"/>
<path d="M0 0 C1.9375 0.625 1.9375 0.625 4 2 C4.875 5 4.875 5 5 8 C2.569534 10.430466 1.4010144 10.76271993 -2 11 C-4.8125 9.5625 -4.8125 9.5625 -7 8 C-3.8035914 6.93453047 -1.34252724 6.92572162 2 7 C1.67 6.401875 1.34 5.80375 1 5.1875 C0 3 0 3 0 0 Z " fill="#4C474A" transform="translate(162,287)"/>
<path d="M0 0 C1.67004829 0.31595508 3.33637583 0.65179959 5 1 C6.32 1 7.64 1 9 1 C9.33 1.99 9.66 2.98 10 4 C8.375 6 8.375 6 6 8 C2.75 8.25 2.75 8.25 0 8 C1.32 6.35 2.64 4.7 4 3 C3.34 2.67 2.68 2.34 2 2 C1.67 2.66 1.34 3.32 1 4 C1 3.34 1 2.68 1 2 C0.34 1.67 -0.32 1.34 -1 1 C-0.67 0.67 -0.34 0.34 0 0 Z " fill="#161416" transform="translate(254,297)"/>
<path d="M0 0 C1.32 0.33 2.64 0.66 4 1 C5.60725635 4.21451269 5.05748185 7.43612536 5 11 C3.68 11.33 2.36 11.66 1 12 C0.67 8.04 0.34 4.08 0 0 Z " fill="#3F3D40" transform="translate(238,340)"/>
<path d="M0 0 C0.99 0.33 1.98 0.66 3 1 C4.1875 3.5625 4.1875 3.5625 5 6 C3.68 6 2.36 6 1 6 C1 7.65 1 9.3 1 11 C0.67 11 0.34 11 0 11 C0 9.35 0 7.7 0 6 C-0.66 6 -1.32 6 -2 6 C-2 9.3 -2 12.6 -2 16 C-2.33 16 -2.66 16 -3 16 C-3.55353075 4.29384966 -3.55353075 4.29384966 0 0 Z " fill="#C9C9C9" transform="translate(282,163)"/>
<path d="M0 0 C0.66 0.33 1.32 0.66 2 1 C0.88200014 2.33920838 -0.24461897 3.67122556 -1.375 5 C-2.31472656 6.11375 -2.31472656 6.11375 -3.2734375 7.25 C-4.12808594 8.11625 -4.12808594 8.11625 -5 9 C-5.66 9 -6.32 9 -7 9 C-7.2475 9.721875 -7.495 10.44375 -7.75 11.1875 C-9.12269592 14.27606582 -10.72353296 16.51011418 -13 19 C-13.66 19 -14.32 19 -15 19 C-11.71961725 11.71586805 -5.78702026 5.42533149 0 0 Z " fill="#919191" transform="translate(254,119)"/>
<path d="M0 0 C3.07692057 2.76922851 4.77800007 5.02850024 6 9 C6 9.99 6 10.98 6 12 C5.01 12 4.02 12 3 12 C0.94801218 9.94801218 -0.02083184 8.7115426 -1 6 C-0.625 2.75 -0.625 2.75 0 0 Z " fill="#353034" transform="translate(221,337)"/>
<path d="M0 0 C0.33 0 0.66 0 1 0 C1 4.62 1 9.24 1 14 C1.99 14 2.98 14 4 14 C4.33 9.38 4.66 4.76 5 0 C5.33 0 5.66 0 6 0 C6 5.28 6 10.56 6 16 C4.35 16.33 2.7 16.66 1 17 C-0.53266582 13.93466836 -0.10276471 10.73245728 -0.0625 7.375 C-0.05798828 6.66859375 -0.05347656 5.9621875 -0.04882812 5.234375 C-0.03703875 3.48954725 -0.01910324 1.744763 0 0 Z " fill="#918E91" transform="translate(320,335)"/>
<path d="M0 0 C3.5625 0.1875 3.5625 0.1875 5.5625 2.1875 C5.1875 4.3125 5.1875 4.3125 4.5625 6.1875 C3.5725 6.1875 2.5825 6.1875 1.5625 6.1875 C1.5625 5.1975 1.5625 4.2075 1.5625 3.1875 C-1.0775 3.8475 -3.7175 4.5075 -6.4375 5.1875 C-4.03388554 0.22003012 -4.03388554 0.22003012 0 0 Z " fill="#252327" transform="translate(343.4375,333.8125)"/>
<path d="M0 0 C2.5 1.125 2.5 1.125 5 3 C5.3125 6.1875 5.3125 6.1875 5 9 C1.73045798 8.43628586 0.17424117 7.50037734 -2 5 C-1.34 3.35 -0.68 1.7 0 0 Z " fill="#1D1A1C" transform="translate(412,296)"/>
<path d="M0 0 C2.01822917 0.06510417 4.03645833 0.13020833 6.0546875 0.1953125 C6.0546875 0.5253125 6.0546875 0.8553125 6.0546875 1.1953125 C4.4046875 1.1953125 2.7546875 1.1953125 1.0546875 1.1953125 C1.0546875 1.8553125 1.0546875 2.5153125 1.0546875 3.1953125 C1.7146875 3.5253125 2.3746875 3.8553125 3.0546875 4.1953125 C1.7346875 4.5253125 0.4146875 4.8553125 -0.9453125 5.1953125 C-0.9453125 5.8553125 -0.9453125 6.5153125 -0.9453125 7.1953125 C-2.5953125 7.5253125 -4.2453125 7.8553125 -5.9453125 8.1953125 C-3.55986581 0.35741625 -3.55986581 0.35741625 0 0 Z " fill="#5D5B5B" transform="translate(418.9453125,283.8046875)"/>
<path d="M0 0 C-0.33 1.98 -0.66 3.96 -1 6 C-2.65 6.33 -4.3 6.66 -6 7 C-6.66 5.02 -7.32 3.04 -8 1 C-4.93251126 -0.86240388 -3.40254489 -1.2151946 0 0 Z " fill="#1A1819" transform="translate(263,286)"/>
<path d="M0 0 C0.66 0 1.32 0 2 0 C2.33 2.31 2.66 4.62 3 7 C2.01 7.66 1.02 8.32 0 9 C-0.99 8.67 -1.98 8.34 -3 8 C-3 6.35 -3 4.7 -3 3 C-2.34 3 -1.68 3 -1 3 C-0.67 2.01 -0.34 1.02 0 0 Z " fill="#373638" transform="translate(370,342)"/>
<path d="M0 0 C2.97 0.495 2.97 0.495 6 1 C6 2.98 6 4.96 6 7 C4.02 7.33 2.04 7.66 0 8 C0 5.36 0 2.72 0 0 Z " fill="#4D4B4E" transform="translate(344,342)"/>
<path d="M0 0 C3.49355371 3.02774655 4.90106142 5.51266745 6 10 C6.125 12.875 6.125 12.875 6 15 C5.67 13.68 5.34 12.36 5 11 C3.68 11.33 2.36 11.66 1 12 C1.33 10.68 1.66 9.36 2 8 C1.34 7.67 0.68 7.34 0 7 C0 4.66666667 0 2.33333333 0 0 Z " fill="#494849" transform="translate(306,289)"/>
<path d="M0 0 C0.33 0 0.66 0 1 0 C1.125 2.375 1.125 2.375 1 5 C-1 7 -1 7 -3.8203125 7.1953125 C-4.91085938 7.17210937 -6.00140625 7.14890625 -7.125 7.125 C-8.22070312 7.10695313 -9.31640625 7.08890625 -10.4453125 7.0703125 C-11.28835937 7.04710937 -12.13140625 7.02390625 -13 7 C-11.72265625 5.515625 -11.72265625 5.515625 -10 4 C-3.86153846 3.56923077 -3.86153846 3.56923077 -1 5 C-0.67 3.35 -0.34 1.7 0 0 Z " fill="#514D50" transform="translate(201,345)"/>
<path d="M0 0 C0.33 0 0.66 0 1 0 C1.33 3.3 1.66 6.6 2 10 C1.01 9.67 0.02 9.34 -1 9 C-3.6569191 9.87914688 -3.6569191 9.87914688 -6 11 C-6 10.01 -6 9.02 -6 8 C-5.360625 7.7525 -4.72125 7.505 -4.0625 7.25 C-1.82922897 6.19743256 -1.82922897 6.19743256 -1.3125 4 C-1.209375 3.34 -1.10625 2.68 -1 2 C-0.67 1.34 -0.34 0.68 0 0 Z " fill="#151315" transform="translate(283,298)"/>
<path d="M0 0 C9.24 0 18.48 0 28 0 C28 0.33 28 0.66 28 1 C27.26362305 1.01981934 26.52724609 1.03963867 25.76855469 1.06005859 C22.42867944 1.15537828 19.08942361 1.26502996 15.75 1.375 C14.59113281 1.4059375 13.43226563 1.436875 12.23828125 1.46875 C11.12324219 1.50742188 10.00820313 1.54609375 8.859375 1.5859375 C7.83295898 1.6173584 6.80654297 1.6487793 5.74902344 1.68115234 C3.03132927 1.99636625 1.33075565 2.61032351 -1 4 C-0.67 2.68 -0.34 1.36 0 0 Z " fill="#161616" transform="translate(287,178)"/>
<path d="M0 0 C1.32 0.66 2.64 1.32 4 2 C4 2.66 4 3.32 4 4 C3.34 4 2.68 4 2 4 C2 6.31 2 8.62 2 11 C0.68 11 -0.64 11 -2 11 C-3.13643966 7.59068103 -2.86747764 6.99664544 -1.5625 3.8125 C-1.13130859 2.73935547 -1.13130859 2.73935547 -0.69140625 1.64453125 C-0.46324219 1.10183594 -0.23507813 0.55914062 0 0 Z " fill="#616062" transform="translate(213,341)"/>
<path d="M0 0 C0.33 0 0.66 0 1 0 C1.33 2.64 1.66 5.28 2 8 C-0.64 8 -3.28 8 -6 8 C-5 6 -4 4 -3 2 C-2.34 2 -1.68 2 -1 2 C-0.67 1.34 -0.34 0.68 0 0 Z " fill="#1A181B" transform="translate(412,311)"/>
<path d="M0 0 C1.258125 -0.04125 2.51625 -0.0825 3.8125 -0.125 C4.52019531 -0.14820313 5.22789062 -0.17140625 5.95703125 -0.1953125 C8 0 8 0 11 2 C10.67 2.66 10.34 3.32 10 4 C9.01 3.34 8.02 2.68 7 2 C4.37468476 1.83286431 4.37468476 1.83286431 2 2 C2.66 4.97 3.32 7.94 4 11 C0.14285714 7.14285714 0.14285714 7.14285714 -1 4 C-0.625 1.75 -0.625 1.75 0 0 Z " fill="#969696" transform="translate(395,284)"/>
<path d="M0 0 C1.32 0.66 2.64 1.32 4 2 C4 4.64 4 7.28 4 10 C2.35 10.33 0.7 10.66 -1 11 C-1.66 9.68 -2.32 8.36 -3 7 C-2.34 6.34 -1.68 5.68 -1 5 C-1 6.32 -1 7.64 -1 9 C0.32 9 1.64 9 3 9 C2.01 6.03 1.02 3.06 0 0 Z " fill="#120E13" transform="translate(221,297)"/>
<path d="M0 0 C3 1 3 1 5 4 C5.33 4.99 5.66 5.98 6 7 C7.32 7 8.64 7 10 7 C9.67 7.99 9.34 8.98 9 10 C7.0625 9.625 7.0625 9.625 5 9 C4.67 8.34 4.34 7.68 4 7 C1.98330173 5.86649466 1.98330173 5.86649466 0 5 C0.66 5 1.32 5 2 5 C2 4.34 2 3.68 2 3 C1.34 3 0.68 3 0 3 C0 2.01 0 1.02 0 0 Z " fill="#6A6769" transform="translate(218,342)"/>
<path d="M0 0 C2.4375 0.375 2.4375 0.375 5 1 C5.33 1.66 5.66 2.32 6 3 C5.01 3 4.02 3 3 3 C2.67 4.32 2.34 5.64 2 7 C0.68 6.67 -0.64 6.34 -2 6 C-1.34 4.02 -0.68 2.04 0 0 Z " fill="#181718" transform="translate(346,298)"/>
<path d="M0 0 C0.66 0.33 1.32 0.66 2 1 C0 4 0 4 -2.625 5.5625 C-3.800625 6.2740625 -3.800625 6.2740625 -5 7 C-5 7.66 -5 8.32 -5 9 C-6.98 9.99 -8.96 10.98 -11 12 C-9.49650623 8.33213607 -7.36271208 6.31089607 -4.375 3.75 C-3.14910156 2.69039062 -3.14910156 2.69039062 -1.8984375 1.609375 C-1.27195312 1.07828125 -0.64546875 0.5471875 0 0 Z " fill="#565656" transform="translate(281,142)"/>
<path d="M0 0 C0 0.33 0 0.66 0 1 C-2.31 1.33 -4.62 1.66 -7 2 C-7.66 3.98 -8.32 5.96 -9 8 C-9.66 8 -10.32 8 -11 8 C-11.33 8.66 -11.66 9.32 -12 10 C-10.98127725 1.03523976 -8.62302548 -0.56544429 0 0 Z " fill="#727073" transform="translate(226,284)"/>
<path d="M0 0 C0.66 1.32 1.32 2.64 2 4 C1.01 4.33 0.02 4.66 -1 5 C-0.67 3.35 -0.34 1.7 0 0 Z M-10 2 C-7.36 2 -4.72 2 -2 2 C-1.4375 3.9375 -1.4375 3.9375 -1 6 C-2 7 -2 7 -4.5625 7.0625 C-5.7690625 7.0315625 -5.7690625 7.0315625 -7 7 C-5.68 6.67 -4.36 6.34 -3 6 C-3 5.01 -3 4.02 -3 3 C-5.31 3 -7.62 3 -10 3 C-10 2.67 -10 2.34 -10 2 Z " fill="#555355" transform="translate(352,291)"/>
<path d="M0 0 C0.99 0.33 1.98 0.66 3 1 C3 1.66 3 2.32 3 3 C3.763125 2.67 4.52625 2.34 5.3125 2 C8 1 8 1 11 1 C10.67 2.32 10.34 3.64 10 5 C4.5388601 4.64766839 4.5388601 4.64766839 2 4 C0.5 1.9375 0.5 1.9375 0 0 Z " fill="#6E6C6F" transform="translate(359,340)"/>
<path d="M0 0 C0.66 0.33 1.32 0.66 2 1 C2 2.98 2 4.96 2 7 C1.34 7 0.68 7 0 7 C-0.33 8.32 -0.66 9.64 -1 11 C-1.66 11 -2.32 11 -3 11 C-4.2077558 7.37673261 -3.54311128 6.35853631 -2 3 C-1.34 3 -0.68 3 0 3 C0 2.01 0 1.02 0 0 Z " fill="#6B626A" transform="translate(200,337)"/>
<path d="M0 0 C2.875 -0.125 2.875 -0.125 6 0 C6.66 0.66 7.32 1.32 8 2 C7.34 3.32 6.68 4.64 6 6 C4.35 6 2.7 6 1 6 C0.67 4.02 0.34 2.04 0 0 Z M2 2 C2 2.99 2 3.98 2 5 C3.32 4.67 4.64 4.34 6 4 C5.67 3.34 5.34 2.68 5 2 C4.01 2 3.02 2 2 2 Z " fill="#706B70" transform="translate(276,336)"/>
<path d="M0 0 C5.75 0.75 5.75 0.75 8 3 C7.75 5.5625 7.75 5.5625 7 8 C6.01 8.495 6.01 8.495 5 9 C4.9175 8.2575 4.835 7.515 4.75 6.75 C3.8603054 3.48778646 2.51496251 2.19045122 0 0 Z " fill="#5E5E5E" transform="translate(159,306)"/>
<path d="M0 0 C2.125 0.375 2.125 0.375 4 1 C4 2.32 4 3.64 4 5 C2.68 5.33 1.36 5.66 0 6 C-0.66 4.68 -1.32 3.36 -2 2 C-1.34 1.34 -0.68 0.68 0 0 Z " fill="#525054" transform="translate(337,345)"/>
<path d="M0 0 C2 2 2 2 2 6 C3.65 6 5.3 6 7 6 C7.33 5.34 7.66 4.68 8 4 C8 4.99 8 5.98 8 7 C5.6739143 7.38063221 3.33944736 7.71269945 1 8 C0 7 0 7 -0.0625 3.4375 C-0.041875 2.303125 -0.02125 1.16875 0 0 Z " fill="#2D292E" transform="translate(275,336)"/>
<path d="M0 0 C0.99 0 1.98 0 3 0 C2.835 0.804375 2.67 1.60875 2.5 2.4375 C1.90752652 6.65887352 1.91493291 10.74664545 2 15 C1.34 15 0.68 15 0 15 C0 10.05 0 5.1 0 0 Z " fill="#212023" transform="translate(298,334)"/>
<path d="M0 0 C0.99 0.99 1.98 1.98 3 3 C2.67 3.66 2.34 4.32 2 5 C-1.3 5 -4.6 5 -8 5 C-7.67 4.34 -7.34 3.68 -7 3 C-4.67843403 2.59270772 -2.3431213 2.25561323 0 2 C0 1.34 0 0.68 0 0 Z " fill="#3E3A3D" transform="translate(199,314)"/>
<path d="M0 0 C0.33 0 0.66 0 1 0 C0.50769231 7.50769231 0.50769231 7.50769231 -2.0625 10 C-3.0215625 10.495 -3.0215625 10.495 -4 11 C-4.33 10.34 -4.66 9.68 -5 9 C-3.6875 6.375 -3.6875 6.375 -2 4 C-1.34 4 -0.68 4 0 4 C0 2.68 0 1.36 0 0 Z " fill="#464547" transform="translate(270,306)"/>
<path d="M0 0 C2.46800047 1.15173355 4.04783565 2.04783565 6 4 C5.625 6.125 5.625 6.125 5 8 C4.01 7.34 3.02 6.68 2 6 C2 5.01 2 4.02 2 3 C1.34 3 0.68 3 0 3 C0 2.01 0 1.02 0 0 Z " fill="#555455" transform="translate(194,286)"/>
<path d="M0 0 C0.99 0.66 1.98 1.32 3 2 C-1.62 2 -6.24 2 -11 2 C-4.14814815 -1.42592593 -4.14814815 -1.42592593 0 0 Z " fill="#B5B5B5" transform="translate(317,208)"/>
<path d="M0 0 C1.2065625 0.0309375 1.2065625 0.0309375 2.4375 0.0625 C2.4375 1.7125 2.4375 3.3625 2.4375 5.0625 C0.7875 4.7325 -0.8625 4.4025 -2.5625 4.0625 C-2.8925 3.0725 -3.2225 2.0825 -3.5625 1.0625 C-2.5625 0.0625 -2.5625 0.0625 0 0 Z " fill="#383638" transform="translate(236.5625,333.9375)"/>
<path d="M0 0 C0.66 0.33 1.32 0.66 2 1 C2 2.32 2 3.64 2 5 C1.01 5 0.02 5 -1 5 C-1 5.99 -1 6.98 -1 8 C-2.32 7.67 -3.64 7.34 -5 7 C-4.01 7 -3.02 7 -2 7 C-2.33 5.35 -2.66 3.7 -3 2 C-2.01 1.34 -1.02 0.68 0 0 Z " fill="#423443" transform="translate(383,298)"/>
<path d="M0 0 C2.625 0.375 2.625 0.375 5 1 C4.67 2.65 4.34 4.3 4 6 C3.38125 5.525625 2.7625 5.05125 2.125 4.5625 C0.09294454 2.97582559 0.09294454 2.97582559 -2 2 C-1.34 1.34 -0.68 0.68 0 0 Z " fill="#1A181B" transform="translate(403,296)"/>
<path d="M0 0 C2.76223278 2.76223278 2.57856291 5.20706617 3 9 C2.01 8.67 1.02 8.34 0 8 C-1.1875 4.4375 -1.1875 4.4375 -2 1 C-1.34 0.67 -0.68 0.34 0 0 Z " fill="#504F4F" transform="translate(387,292)"/>
<path d="M0 0 C0.6875 1.6875 0.6875 1.6875 1 4 C-0.3125 6.75 -0.3125 6.75 -2 9 C-2.66 9 -3.32 9 -4 9 C-4.33 9.66 -4.66 10.32 -5 11 C-4.32902328 6.80639551 -2.1441606 3.59665648 0 0 Z " fill="#777676" transform="translate(193,127)"/>
<path d="M0 0 C0.66 0 1.32 0 2 0 C2.144375 1.11375 2.28875 2.2275 2.4375 3.375 C2.78372035 6.82142047 2.78372035 6.82142047 4 9 C2.68 9 1.36 9 0 9 C0 6.03 0 3.06 0 0 Z " fill="#29262A" transform="translate(188,342)"/>
<path d="M0 0 C0.66 0.33 1.32 0.66 2 1 C-0.31 3.64 -2.62 6.28 -5 9 C-5.33 8.01 -5.66 7.02 -6 6 C-4.02 4.02 -2.04 2.04 0 0 Z " fill="#8B8B8B" transform="translate(254,119)"/>
<path d="M0 0 C1.65 0 3.3 0 5 0 C5 0.66 5 1.32 5 2 C4.34 2 3.68 2 3 2 C3 2.66 3 3.32 3 4 C2.34 4 1.68 4 1 4 C0.67 4.66 0.34 5.32 0 6 C-1.125 2.25 -1.125 2.25 0 0 Z " fill="#474447" transform="translate(215,345)"/>
<path d="M0 0 C0.66 1.32 1.32 2.64 2 4 C4.05000871 4.80528889 4.05000871 4.80528889 6 5 C5.67 5.66 5.34 6.32 5 7 C4.01 7 3.02 7 2 7 C1.67 7.99 1.34 8.98 1 10 C0.67 6.7 0.34 3.4 0 0 Z " fill="#2F2E30" transform="translate(275,299)"/>
<path d="M0 0 C0.66 0.33 1.32 0.66 2 1 C0.1875 4 0.1875 4 -2 7 C-2.99 7 -3.98 7 -5 7 C-3.75023244 3.34683329 -3.32901247 2.21934164 0 0 Z " fill="#4E4C4D" transform="translate(283,286)"/>
<path d="M0 0 C2 2 2 2 2 6 C0.35 6.33 -1.3 6.66 -3 7 C-1.125 1.125 -1.125 1.125 0 0 Z " fill="#696368" transform="translate(416,285)"/>
<path d="M0 0 C0.66 0 1.32 0 2 0 C2.33 2.31 2.66 4.62 3 7 C1.68 7 0.36 7 -1 7 C-0.67 4.69 -0.34 2.38 0 0 Z " fill="#E5E5E5" transform="translate(282,177)"/>
<path d="M0 0 C0.99 0.66 1.98 1.32 3 2 C3 2.99 3 3.98 3 5 C2.01 5.33 1.02 5.66 0 6 C-0.66 5.67 -1.32 5.34 -2 5 C-1.34 3.35 -0.68 1.7 0 0 Z " fill="#413B41" transform="translate(369,334)"/>
<path d="M0 0 C1.32 0 2.64 0 4 0 C3.625 2.4375 3.625 2.4375 3 5 C2.01 5.495 2.01 5.495 1 6 C0.67 4.02 0.34 2.04 0 0 Z " fill="#333033" transform="translate(244,334)"/>
<path d="M0 0 C0.99 0.33 1.98 0.66 3 1 C3 1.66 3 2.32 3 3 C-1.43076923 5.09230769 -1.43076923 5.09230769 -4.3125 4.625 C-4.869375 4.41875 -5.42625 4.2125 -6 4 C-3.1875 1.9375 -3.1875 1.9375 0 0 Z " fill="#171518" transform="translate(331,250)"/>
<path d="M0 0 C2.91517292 1.07401108 4.77810176 1.77810176 7 4 C5.02 4.66 3.04 5.32 1 6 C0.67 4.02 0.34 2.04 0 0 Z " fill="#303030" transform="translate(258,232)"/>
<path d="M0 0 C2.125 0.375 2.125 0.375 4 1 C2.35 2.65 0.7 4.3 -1 6 C-1.625 4.125 -1.625 4.125 -2 2 C-1.34 1.34 -0.68 0.68 0 0 Z " fill="#4E4B4C" transform="translate(364,226)"/>
<path d="M0 0 C2.64 0 5.28 0 8 0 C8 0.66 8 1.32 8 2 C4.71303767 2.79953138 3.28976808 3.09658936 0 2 C0 1.34 0 0.68 0 0 Z " fill="#181519" transform="translate(274,349)"/>
<path d="M0 0 C0.66 0 1.32 0 2 0 C2.33 0.99 2.66 1.98 3 3 C1.68 3.99 0.36 4.98 -1 6 C-1.66 5.67 -2.32 5.34 -3 5 C-3 4.34 -3 3.68 -3 3 C-2.34 3 -1.68 3 -1 3 C-0.67 2.01 -0.34 1.02 0 0 Z " fill="#525052" transform="translate(370,342)"/>
<path d="M0 0 C0.99 0.33 1.98 0.66 3 1 C2.67 2.32 2.34 3.64 2 5 C1.01 5 0.02 5 -1 5 C-1 4.34 -1 3.68 -1 3 C-2.32 2.67 -3.64 2.34 -5 2 C-3.35 2 -1.7 2 0 2 C0 1.34 0 0.68 0 0 Z " fill="#464345" transform="translate(198,335)"/>
<path d="M0 0 C6.625 0.75 6.625 0.75 10 3 C6.65155086 4.05236973 5.40920111 4.20005388 2.1875 2.625 C1.465625 2.08875 0.74375 1.5525 0 1 C0 0.67 0 0.34 0 0 Z " fill="#636264" transform="translate(155,294)"/>
<path d="M0 0 C0.33 0 0.66 0 1 0 C1.36923077 4.55384615 1.36923077 4.55384615 -0.5 6.8125 C-0.995 7.204375 -1.49 7.59625 -2 8 C-2.6875 6.25 -2.6875 6.25 -3 4 C-1.625 1.75 -1.625 1.75 0 0 Z " fill="#4D4C4C" transform="translate(372,216)"/>
<path d="M0 0 C0.66 0 1.32 0 2 0 C2.33 0.99 2.66 1.98 3 3 C1.68 3.99 0.36 4.98 -1 6 C-1.66 5.67 -2.32 5.34 -3 5 C-1.625 2.5 -1.625 2.5 0 0 Z " fill="#BCBCBC" transform="translate(329,202)"/>
<path d="M0 0 C-0.33 1.32 -0.66 2.64 -1 4 C-2.32 4.33 -3.64 4.66 -5 5 C-5 3.68 -5 2.36 -5 1 C-2 0 -2 0 0 0 Z " fill="#4C4B4C" transform="translate(336,161)"/>
<path d="M0 0 C2.5654594 2.5654594 2.54046087 4.47686668 3 8 C2.01 8 1.02 8 0 8 C0 5.36 0 2.72 0 0 Z " fill="#413F41" transform="translate(224,341)"/>
<path d="M0 0 C1.98 0.99 1.98 0.99 4 2 C3.67 3.32 3.34 4.64 3 6 C2.01 5.67 1.02 5.34 0 5 C0 3.35 0 1.7 0 0 Z " fill="#727173" transform="translate(345,334)"/>
<path d="M0 0 C2.46800047 1.15173355 4.04783565 2.04783565 6 4 C5.34 4 4.68 4 4 4 C3.67 4.99 3.34 5.98 3 7 C0 2.25 0 2.25 0 0 Z " fill="#57555A" transform="translate(187,310)"/>
<path d="M0 0 C1.42944945 2.35438733 2.08661261 3.48032433 1.625 6.25 C1.41875 6.8275 1.2125 7.405 1 8 C-1.13562754 5.86437246 -1.63318342 4.93453261 -2 2 C-1.34 1.34 -0.68 0.68 0 0 Z " fill="#3D3A3B" transform="translate(390,301)"/>
<path d="M0 0 C0.66 0 1.32 0 2 0 C3.25541557 3.76624671 2.37061958 5.37188934 1 9 C0.67 9 0.34 9 0 9 C0 6.03 0 3.06 0 0 Z " fill="#1A1A1A" transform="translate(276,295)"/>
<path d="M0 0 C0.66 0 1.32 0 2 0 C1.67 3.63 1.34 7.26 1 11 C0.67 11 0.34 11 0 11 C0 8.36 0 5.72 0 3 C-0.66 2.67 -1.32 2.34 -2 2 C-1.34 1.34 -0.68 0.68 0 0 Z " fill="#2B292B" transform="translate(284,295)"/>
<path d="M0 0 C0.33 1.32 0.66 2.64 1 4 C0.360625 4.28875 -0.27875 4.5775 -0.9375 4.875 C-3.15206079 5.82823451 -3.15206079 5.82823451 -4 8 C-3.50168276 4.31245243 -2.89932357 2.39509338 0 0 Z " fill="#787679" transform="translate(138,289)"/>
</svg>
